<?xml version="1.0" encoding="utf-8"?>
<!-- Generator: Adobe Illustrator 19.0.0, SVG Export Plug-In . SVG Version: 6.00 Build 0)  -->
<svg version="1.1" id="Layer_1" xmlns="http://www.w3.org/2000/svg" xmlns:xlink="http://www.w3.org/1999/xlink" x="0px" y="0px"
	 viewBox="0 0 128 128" style="enable-background:new 0 0 128 128;" xml:space="preserve">
<style type="text/css">
	.st0{fill:none;stroke:#FFFFFF;stroke-width:2;stroke-linecap:round;stroke-linejoin:round;stroke-miterlimit:10;}
</style>
<path id="XMLID_406_" class="st0" d="M40.5,108l62.6-0.3c4.6,0,8.9-5.2,8.9-9.9V91l-13,0.1l-50,0.2v8.4C49,104.3,45.1,108,40.5,108
	s-8.1-3.7-8.1-8.4L33,34v-8.6c0-4.6-4.3-8.9-8.9-8.4"/>
<path id="XMLID_405_" class="st0" d="M99,91V34v-8.6c0-4.6-3.7-8.3-8.3-8.3L25.1,17c-4.6,0-8.1,3.7-8.1,8.4V41l15.9,0.1"/>
<g id="XMLID_470_">
	<g id="XMLID_460_">
		<path id="XMLID_446_" class="st0" d="M43,49.9c0,3,3,5.5,6.8,5.5s6.8-2.5,6.8-5.5c0-3-3-5.6-6.8-5.6S43,41.8,43,38.8
			c0-3,3-5.5,6.8-5.5s6.8,2.5,6.8,5.5"/>
		<line id="XMLID_461_" class="st0" x1="50" y1="29" x2="50" y2="61"/>
	</g>
	<g id="XMLID_466_">
		<line id="XMLID_463_" class="st0" x1="66" y1="38" x2="90" y2="38"/>
		<line id="XMLID_462_" class="st0" x1="66" y1="43" x2="90" y2="43"/>
		<line id="XMLID_464_" class="st0" x1="66" y1="48" x2="90" y2="48"/>
		<line id="XMLID_465_" class="st0" x1="66" y1="53" x2="90" y2="53"/>
	</g>
	<line id="XMLID_468_" class="st0" x1="44" y1="69" x2="90" y2="69"/>
	<line id="XMLID_467_" class="st0" x1="44" y1="79" x2="90" y2="79"/>
	<line id="XMLID_469_" class="st0" x1="44" y1="74" x2="90" y2="74"/>
</g>
</svg>
