<?xml version="1.0" encoding="utf-8"?>
<!-- Generator: Adobe Illustrator 19.0.0, SVG Export Plug-In . SVG Version: 6.00 Build 0)  -->
<svg version="1.1" id="Layer_1" xmlns="http://www.w3.org/2000/svg" xmlns:xlink="http://www.w3.org/1999/xlink" x="0px" y="0px"
	 viewBox="0 0 128 128" style="enable-background:new 0 0 128 128;" xml:space="preserve">
<style type="text/css">
	.st0{fill:none;stroke:#FFFFFF;stroke-width:2;stroke-linecap:round;stroke-linejoin:round;stroke-miterlimit:10;}
</style>
<g id="XMLID_1_">
	<polyline id="XMLID_57_" class="st0" points="91.1,31.3 103.5,31.3 103.5,107.1 24.5,107.1 24.5,31.3 36.3,31.3 	"/>
	<line id="XMLID_6_" class="st0" x1="48.3" y1="31.3" x2="79.1" y2="31.3"/>
	<line id="XMLID_5_" class="st0" x1="25" y1="51" x2="103" y2="51"/>
	<g id="XMLID_4_">
		<rect id="XMLID_2_" x="36.3" y="20.9" class="st0" width="11.8" height="20.8"/>
		<rect id="XMLID_3_" x="79.3" y="20.9" class="st0" width="11.8" height="20.8"/>
	</g>
	<g id="XMLID_55_">
		<rect id="XMLID_46_" x="37.3" y="56.1" class="st0" width="11" height="11"/>
		<rect id="XMLID_47_" x="79.1" y="56.1" class="st0" width="11" height="11"/>
		<rect id="XMLID_48_" x="58.3" y="56.1" class="st0" width="11" height="11"/>
		<rect id="XMLID_51_" x="37.3" y="72.5" class="st0" width="11" height="11"/>
		<rect id="XMLID_50_" x="79.1" y="72.5" class="st0" width="11" height="11"/>
		<rect id="XMLID_49_" x="58.3" y="72.5" class="st0" width="11" height="11"/>
		<rect id="XMLID_52_" x="37.3" y="88.5" class="st0" width="11" height="11"/>
		<rect id="XMLID_53_" x="58.7" y="88.5" class="st0" width="11" height="11"/>
		<rect id="XMLID_54_" x="79.1" y="88.5" class="st0" width="11" height="11"/>
	</g>
</g>
</svg>
